<svg width="434" height="227" viewBox="0 0 434 227" fill="none" xmlns="http://www.w3.org/2000/svg">
<path d="M72.7588 5.37207H20.8034C6.9776 5.37207 0 12.0833 0 25.3766V96.5222C0 98.2647 0.935927 99.3376 2.95235 99.3376H18.6577C20.5371 99.3376 21.747 98.2647 21.747 96.5222V93.821C21.747 87.2314 24.5243 83.6399 31.4258 82.9475H72.7588C87.9239 82.9475 94.7721 76.3731 94.7721 62.0071V26.3125C94.7721 11.9464 87.9239 5.37207 72.7588 5.37207ZM73.0479 55.9654C73.0479 63.7572 71.2826 65.3627 62.0147 65.3627H40.0014C30.741 65.3627 24.8287 68.452 21.7394 74.4937V30.6117C21.7394 24.57 23.2155 22.9568 30.5964 22.9568H62.0147C71.2826 22.9568 73.0479 24.57 73.0479 32.3542V55.9654Z" fill="white"/>
<path d="M144.574 44.7038C132.628 44.7038 127.522 50.7454 127.522 60.9493V96.7885C127.522 98.4016 126.715 99.3375 124.836 99.3375H110.607C108.727 99.3375 107.791 98.4016 107.791 96.7885V31.2812C107.791 29.6681 108.727 28.7245 110.607 28.7245H122.553C124.303 28.7245 125.239 29.6681 125.239 31.2812V41.8503C127.522 33.1302 134.104 28.6941 145.784 28.6941H150.616C152.358 28.6941 153.294 29.6376 153.294 31.2508V42.1547C153.294 43.8972 152.358 44.7038 150.616 44.7038H144.574Z" fill="white"/>
<path d="M237.193 80.1396C237.193 93.4328 231.288 99.3375 217.196 99.3375H182.293C168.33 99.3375 162.288 93.4328 162.288 80.1396V47.9377C162.288 34.6521 168.33 28.7397 182.293 28.7397H217.196C231.288 28.7397 237.193 34.6521 237.193 47.9377V80.1396ZM217.462 53.0282C217.462 46.043 216.123 44.7038 207.799 44.7038H191.819C183.366 44.7038 182.019 46.043 182.019 53.0282V75.0415C182.019 82.0191 183.366 83.3659 191.819 83.3659H207.799C216.123 83.3659 217.462 82.0191 217.462 75.0415V53.0282Z" fill="white"/>
<path d="M257.06 44.7038H250.341C248.591 44.7038 247.655 43.8973 247.655 42.1548V31.2813C247.655 29.6681 248.591 28.7246 250.341 28.7246H257.053V20.0045C257.06 6.71128 264.038 0 277.864 0H294.376C296.255 0 297.062 0.943536 297.062 2.54907V13.4226C297.062 15.1727 296.255 15.9716 294.376 15.9716H285.655C278.267 15.9716 276.791 17.5848 276.791 23.6264V28.7246H294.376C296.255 28.7246 297.062 29.6681 297.062 31.2813V42.1548C297.062 43.8973 296.255 44.7038 294.376 44.7038H276.791V96.7885C276.791 98.4017 275.855 99.3376 273.975 99.3376H259.746C257.867 99.3376 257.06 98.4017 257.06 96.7885V44.7038Z" fill="white"/>
<path d="M311.831 44.7038H305.127C303.385 44.7038 302.449 43.8973 302.449 42.1548V31.2813C302.449 29.6681 303.385 28.7246 305.127 28.7246H311.846V20.0045C311.831 6.71128 318.824 0 332.634 0H349.146C351.026 0 351.832 0.943536 351.832 2.54907V13.4226C351.832 15.1727 351.026 15.9716 349.146 15.9716H340.419C333.038 15.9716 331.562 17.5848 331.562 23.6264V28.7246H349.146C351.026 28.7246 351.832 29.6681 351.832 31.2813V42.1548C351.832 43.8973 351.026 44.7038 349.146 44.7038H331.562V96.7885C331.562 98.4017 330.618 99.3376 328.739 99.3376H314.509C312.63 99.3376 311.831 98.4017 311.831 96.7885V44.7038Z" fill="white"/>
<path d="M411.831 126.723H382.566C369.417 126.723 363.779 121.625 363.779 109.001V107.662C363.74 107.302 363.782 106.937 363.904 106.596C364.025 106.254 364.221 105.944 364.479 105.689C364.736 105.434 365.047 105.24 365.39 105.122C365.733 105.004 366.097 104.964 366.457 105.006H380.154C382.033 105.006 382.969 105.95 382.969 107.692V108.362C382.969 111.048 384.453 112.121 387.405 112.121H404.32C412.371 112.121 414.387 110.112 414.387 103.264V82.0876C411.298 88.1293 405.393 91.2186 396.125 91.2186H382.429C368.466 91.2186 362.287 85.3139 362.287 72.0207V31.2812C362.269 30.9294 362.327 30.5779 362.458 30.2506C362.588 29.9234 362.788 29.6282 363.043 29.3854C363.298 29.1425 363.602 28.9577 363.936 28.8436C364.269 28.7296 364.623 28.6889 364.973 28.7245H379.34C381.082 28.7245 382.026 29.6681 382.026 31.2812V66.9606C382.026 73.9382 383.502 75.285 391.826 75.285H402.03C410.887 75.285 414.38 71.6554 414.38 64.2745V31.2812C414.38 29.6681 415.316 28.7245 417.066 28.7245H431.439C431.783 28.6913 432.13 28.7347 432.455 28.8516C432.78 28.9685 433.075 29.1559 433.318 29.4004C433.562 29.6449 433.749 29.9404 433.864 30.2656C433.98 30.5908 434.023 30.9377 433.989 31.2812V105.379C433.981 119.464 426.463 126.723 411.831 126.723Z" fill="white"/>
<path d="M19.08 164.16C19.08 154.872 5.544 158.904 5.544 152.424C5.544 149.724 7.668 148.32 10.368 148.392C13.428 148.428 15.012 150.336 15.228 152.028H18.828C18.432 148.212 15.3 145.584 10.512 145.584C5.544 145.584 2.196 148.392 2.196 152.532C2.196 161.856 15.768 157.536 15.768 164.304C15.768 166.68 13.896 168.48 10.728 168.48C7.236 168.48 5.76 166.392 5.544 164.304H2.052C2.124 168.444 5.688 171.252 10.728 171.252C16.164 171.252 19.08 167.724 19.08 164.16ZM41.3969 151.272H38.1209V162.108C38.1209 166.356 35.8529 168.444 32.4689 168.444C29.1569 168.444 26.9609 166.392 26.9609 162.396V151.272H23.7209V162.828C23.7209 168.48 27.2849 171.288 31.8209 171.288C34.4489 171.288 36.8609 170.136 38.1209 168.084V171H41.3969V151.272ZM45.7043 161.064C45.7043 167.184 49.7723 171.324 55.0283 171.324C58.6643 171.324 61.2203 169.452 62.4083 167.328V171H65.7203V151.272H62.4083V154.872C61.2563 152.82 58.7363 150.948 55.0643 150.948C49.7723 150.948 45.7043 154.908 45.7043 161.064ZM62.4083 161.1C62.4083 165.744 59.3123 168.444 55.7123 168.444C52.1123 168.444 49.0523 165.708 49.0523 161.064C49.0523 156.42 52.1123 153.792 55.7123 153.792C59.3123 153.792 62.4083 156.528 62.4083 161.1ZM84.13 154.908V151.272H80.854V180.36H84.13V167.364C85.354 169.38 87.91 171.324 91.51 171.324C96.802 171.324 100.87 167.184 100.87 161.064C100.87 154.908 96.802 150.948 91.51 150.948C87.91 150.948 85.318 152.82 84.13 154.908ZM97.522 161.064C97.522 165.708 94.462 168.444 90.826 168.444C87.262 168.444 84.13 165.744 84.13 161.1C84.13 156.528 87.262 153.792 90.826 153.792C94.462 153.792 97.522 156.42 97.522 161.064ZM105.182 171H108.458V144.36H105.182V171ZM112.818 161.064C112.818 167.184 116.886 171.324 122.142 171.324C125.778 171.324 128.334 169.452 129.522 167.328V171H132.834V151.272H129.522V154.872C128.37 152.82 125.85 150.948 122.178 150.948C116.886 150.948 112.818 154.908 112.818 161.064ZM129.522 161.1C129.522 165.744 126.426 168.444 122.826 168.444C119.226 168.444 116.166 165.708 116.166 161.064C116.166 156.42 119.226 153.792 122.826 153.792C126.426 153.792 129.522 156.528 129.522 161.1ZM138.982 171H142.258V153.972H146.398V151.272H142.258V149.868C142.258 147.312 143.23 146.232 146.182 146.232V143.496C141.142 143.496 138.982 145.476 138.982 149.868V151.272H136.426V153.972H138.982V171ZM168.937 161.1C168.937 154.872 164.581 150.948 158.965 150.948C153.385 150.948 148.993 154.872 148.993 161.1C148.993 167.364 153.241 171.324 158.821 171.324C164.437 171.324 168.937 167.364 168.937 161.1ZM152.341 161.1C152.341 156.132 155.473 153.792 158.929 153.792C162.313 153.792 165.589 156.132 165.589 161.1C165.589 166.104 162.241 168.444 158.821 168.444C155.401 168.444 152.341 166.104 152.341 161.1ZM176.521 160.272C176.521 155.7 178.897 154.296 182.029 154.296H182.893V150.912C179.761 150.912 177.637 152.28 176.521 154.476V151.272H173.245V171H176.521V160.272ZM215.15 171H218.39V159.372C218.39 153.72 214.898 150.912 210.398 150.912C207.374 150.912 204.566 152.46 203.414 155.304C202.118 152.352 199.418 150.912 196.178 150.912C193.586 150.912 191.246 152.028 189.95 154.116V151.272H186.674V171H189.95V160.128C189.95 155.88 192.218 153.756 195.53 153.756C198.77 153.756 200.93 155.808 200.93 159.84V171H204.17V160.128C204.17 155.88 206.438 153.756 209.75 153.756C212.99 153.756 215.15 155.808 215.15 159.84V171ZM222.54 161.064C222.54 167.184 226.608 171.324 231.864 171.324C235.5 171.324 238.056 169.452 239.244 167.328V171H242.556V151.272H239.244V154.872C238.092 152.82 235.572 150.948 231.9 150.948C226.608 150.948 222.54 154.908 222.54 161.064ZM239.244 161.1C239.244 165.744 236.148 168.444 232.548 168.444C228.948 168.444 225.888 165.708 225.888 161.064C225.888 156.42 228.948 153.792 232.548 153.792C236.148 153.792 239.244 156.528 239.244 161.1ZM256.466 161.064C256.466 167.184 260.534 171.324 265.826 171.324C269.426 171.324 271.982 169.488 273.17 167.292V171H276.482V144.36H273.17V154.8C271.802 152.532 268.958 150.948 265.862 150.948C260.534 150.948 256.466 154.908 256.466 161.064ZM273.17 161.1C273.17 165.744 270.074 168.444 266.474 168.444C262.874 168.444 259.814 165.708 259.814 161.064C259.814 156.42 262.874 153.792 266.474 153.792C270.074 153.792 273.17 156.528 273.17 161.1ZM290.406 153.72C293.79 153.72 296.67 155.844 296.634 159.696H284.178C284.538 155.844 287.202 153.72 290.406 153.72ZM299.622 164.916H296.094C295.374 167.04 293.502 168.552 290.55 168.552C287.202 168.552 284.394 166.356 284.142 162.36H299.91C299.982 161.676 300.018 161.1 300.018 160.38C300.018 154.98 296.274 150.948 290.55 150.948C284.79 150.948 280.794 154.872 280.794 161.1C280.794 167.364 284.934 171.324 290.55 171.324C295.446 171.324 298.614 168.516 299.622 164.916ZM11.16 199.72C14.544 199.72 17.424 201.844 17.388 205.696H4.932C5.292 201.844 7.956 199.72 11.16 199.72ZM20.376 210.916H16.848C16.128 213.04 14.256 214.552 11.304 214.552C7.956 214.552 5.148 212.356 4.896 208.36H20.664C20.736 207.676 20.772 207.1 20.772 206.38C20.772 200.98 17.028 196.948 11.304 196.948C5.544 196.948 1.548 200.872 1.548 207.1C1.548 213.364 5.688 217.324 11.304 217.324C16.2 217.324 19.368 214.516 20.376 210.916ZM39.2802 211.636C39.1362 204.58 27.6882 207.136 27.6882 202.456C27.6882 200.872 29.1282 199.72 31.5402 199.72C34.1682 199.72 35.6802 201.16 35.8242 203.14H39.1002C38.8842 199.288 36.0042 196.948 31.6482 196.948C27.2562 196.948 24.4122 199.432 24.4122 202.456C24.4122 209.8 36.0762 207.244 36.0762 211.636C36.0762 213.256 34.6362 214.552 32.0442 214.552C29.2722 214.552 27.5802 213.112 27.4002 211.204H24.0162C24.2322 214.804 27.4722 217.324 32.0802 217.324C36.4362 217.324 39.2802 214.876 39.2802 211.636ZM44.6248 211.6C44.6248 215.56 46.6048 217 50.0968 217H53.0488V214.228H50.6368C48.6208 214.228 47.9008 213.544 47.9008 211.6V199.972H53.0488V197.272H47.9008V192.304H44.6248V197.272H42.0688V199.972H44.6248V211.6ZM74.5141 197.272H71.2381V208.108C71.2381 212.356 68.9701 214.444 65.5861 214.444C62.2741 214.444 60.0781 212.392 60.0781 208.396V197.272H56.8381V208.828C56.8381 214.48 60.4021 217.288 64.9381 217.288C67.5661 217.288 69.9781 216.136 71.2381 214.084V217H74.5141V197.272ZM78.8214 207.064C78.8214 213.184 82.8894 217.324 88.1814 217.324C91.7814 217.324 94.3374 215.488 95.5254 213.292V217H98.8374V190.36H95.5254V200.8C94.1574 198.532 91.3134 196.948 88.2174 196.948C82.8894 196.948 78.8214 200.908 78.8214 207.064ZM95.5254 207.1C95.5254 211.744 92.4294 214.444 88.8294 214.444C85.2294 214.444 82.1694 211.708 82.1694 207.064C82.1694 202.42 85.2294 199.792 88.8294 199.792C92.4294 199.792 95.5254 202.528 95.5254 207.1ZM123.094 207.1C123.094 200.872 118.738 196.948 113.122 196.948C107.542 196.948 103.15 200.872 103.15 207.1C103.15 213.364 107.398 217.324 112.978 217.324C118.594 217.324 123.094 213.364 123.094 207.1ZM106.498 207.1C106.498 202.132 109.63 199.792 113.086 199.792C116.47 199.792 119.746 202.132 119.746 207.1C119.746 212.104 116.398 214.444 112.978 214.444C109.558 214.444 106.498 212.104 106.498 207.1ZM141.585 211.636C141.441 204.58 129.993 207.136 129.993 202.456C129.993 200.872 131.433 199.72 133.845 199.72C136.473 199.72 137.985 201.16 138.129 203.14H141.405C141.189 199.288 138.309 196.948 133.953 196.948C129.561 196.948 126.717 199.432 126.717 202.456C126.717 209.8 138.381 207.244 138.381 211.636C138.381 213.256 136.941 214.552 134.349 214.552C131.577 214.552 129.885 213.112 129.705 211.204H126.321C126.537 214.804 129.777 217.324 134.385 217.324C138.741 217.324 141.585 214.876 141.585 211.636ZM174.527 207.1C174.527 200.872 170.171 196.948 164.555 196.948C158.975 196.948 154.583 200.872 154.583 207.1C154.583 213.364 158.831 217.324 164.411 217.324C170.027 217.324 174.527 213.364 174.527 207.1ZM157.931 207.1C157.931 202.132 161.063 199.792 164.519 199.792C167.903 199.792 171.179 202.132 171.179 207.1C171.179 212.104 167.831 214.444 164.411 214.444C160.991 214.444 157.931 212.104 157.931 207.1ZM193.271 217H196.511V205.372C196.511 199.72 193.019 196.912 188.447 196.912C185.783 196.912 183.407 198.028 182.111 200.08V197.272H178.835V217H182.111V206.092C182.111 201.844 184.415 199.756 187.763 199.756C191.075 199.756 193.271 201.808 193.271 205.84V217ZM201.862 217H205.138V190.36H201.862V217ZM210.721 217H213.997V197.272H210.721V217ZM212.413 194.068C213.601 194.068 214.573 193.096 214.573 191.836C214.573 190.576 213.601 189.604 212.413 189.604C211.153 189.604 210.181 190.576 210.181 191.836C210.181 193.096 211.153 194.068 212.413 194.068ZM234.017 217H237.257V205.372C237.257 199.72 233.765 196.912 229.193 196.912C226.529 196.912 224.153 198.028 222.857 200.08V197.272H219.581V217H222.857V206.092C222.857 201.844 225.161 199.756 228.509 199.756C231.821 199.756 234.017 201.808 234.017 205.84V217ZM250.996 199.72C254.38 199.72 257.26 201.844 257.224 205.696H244.768C245.128 201.844 247.792 199.72 250.996 199.72ZM260.212 210.916H256.684C255.964 213.04 254.092 214.552 251.14 214.552C247.792 214.552 244.984 212.356 244.732 208.36H260.5C260.572 207.676 260.608 207.1 260.608 206.38C260.608 200.98 256.864 196.948 251.14 196.948C245.38 196.948 241.384 200.872 241.384 207.1C241.384 213.364 245.524 217.324 251.14 217.324C256.036 217.324 259.204 214.516 260.212 210.916ZM268.136 214.984C268.136 213.724 267.164 212.752 265.976 212.752C264.716 212.752 263.744 213.724 263.744 214.984C263.744 216.244 264.716 217.216 265.976 217.216C267.164 217.216 268.136 216.244 268.136 214.984Z" fill="#D4C2FF"/>
</svg>
